<svg xmlns="http://www.w3.org/2000/svg" viewBox="0 0 106.29 121.74"><defs><style>.cls-1{fill:#231f20;}</style></defs><g id="Layer_2" data-name="Layer 2"><g id="Layer_1-2" data-name="Layer 1"><path class="cls-1" d="M55.84,38.88h0a3.37,3.37,0,0,0-1.22,4.61,3.32,3.32,0,0,0,1.22,1.22L104.61,73a3.36,3.36,0,0,1,1.68,2.91V89.62a3.38,3.38,0,0,1-1.68,2.92L54.82,121.29a3.38,3.38,0,0,1-3.37,0L1.69,92.54A3.35,3.35,0,0,1,0,89.62V82.86A3.37,3.37,0,0,1,1.69,80L20,69.37a3.36,3.36,0,0,1,3.36,0L47.15,83.1a3.36,3.36,0,0,0,3.36,0h0a3.37,3.37,0,0,0,1.22-4.61,3.32,3.32,0,0,0-1.22-1.22L1.68,49A3.36,3.36,0,0,1,0,46.11v-14A3.37,3.37,0,0,1,1.69,29.2L51.48.45a3.38,3.38,0,0,1,3.37,0l49.76,28.77a3.36,3.36,0,0,1,1.68,2.91v7a3.39,3.39,0,0,1-1.68,2.92L86.3,52.61a3.38,3.38,0,0,1-3.37,0L59.17,38.9A3.38,3.38,0,0,0,55.84,38.88Z"/></g></g></svg>