<svg id="Layer_2" data-name="Layer 2" xmlns="http://www.w3.org/2000/svg" viewBox="0 0 1080 1920"><defs><style>.cls-1{fill:#373636;}.cls-2{fill:#2a8938;}.cls-3{fill:#8c5530;}</style></defs><rect class="cls-1" y="888.86" width="1080" height="1031.14"/><path class="cls-2" d="M1080,0V1081a782.34,782.34,0,0,1-111.6,96.56,756.14,756.14,0,0,1-130.07,74.29,733.79,733.79,0,0,1-596.65,0,755.1,755.1,0,0,1-130.08-74.29A781.8,781.8,0,0,1,0,1081V0Z" transform="translate(0 0)"/><path class="cls-3" d="M1064.25,1062.74A756.58,756.58,0,0,1,954.49,1158a730.13,730.13,0,0,1-125.93,71.92,709.72,709.72,0,0,1-577.12,0A729.56,729.56,0,0,1,125.5,1158a756.51,756.51,0,0,1-109.75-95.25q-8-8.45-15.75-17.13v69.56a805.2,805.2,0,0,0,97.68,81.94,779.84,779.84,0,0,0,134.23,76.65,757.73,757.73,0,0,0,616.17,0,779.66,779.66,0,0,0,134.22-76.65,805.39,805.39,0,0,0,97.7-81.94v-69.54Q1072.26,1054.32,1064.25,1062.74Z" transform="translate(0 0)"/></svg>