<?xml version="1.0" encoding="utf-8"?>
<!-- Generator: Adobe Illustrator 24.3.0, SVG Export Plug-In . SVG Version: 6.00 Build 0)  -->
<svg version="1.1" id="Layer_2_1_" xmlns="http://www.w3.org/2000/svg" xmlns:xlink="http://www.w3.org/1999/xlink" x="0px" y="0px"
	 viewBox="0 0 1920 1080" style="enable-background:new 0 0 1920 1080;" xml:space="preserve">
<style type="text/css">
	.st0{fill:#373636;}
	.st1{fill:#2A8938;}
	.st2{fill:#8C5530;}
</style>
<rect y="0" class="st0" width="1920" height="1080"/>
<path class="st1" d="M0,0v353.1c9.2,9.8,18.5,19.4,28,28.9c59.8,59.7,125.1,113.6,195.1,160.9c70.5,47.6,145.5,88.3,223.9,121.5
	C609.5,733.2,782.1,768,960,768s350.5-34.8,513-103.6c78.4-33.2,153.3-73.9,223.9-121.5c70-47.3,135.4-101.2,195.1-160.9
	c9.5-9.5,18.8-19.1,28-28.9V0H0z"/>
<path class="st2" d="M1875,365c-58.7,58.6-122.8,111.5-191.6,158c-69.2,46.8-142.8,86.7-219.8,119.3
	c-78.3,33.1-159.6,58.3-242.8,75.4C1135,735.2,1047.6,744,960,744c-87.6,0-175-8.8-260.8-26.3c-83.2-17.1-164.6-42.3-242.8-75.4
	c-76.9-32.6-150.5-72.5-219.8-119.3C167.8,476.5,103.7,423.6,45,365c-15.4-15.4-30.4-31.2-45-47.3v70.1
	C243.7,637.2,583.8,792,960,792s716.3-154.8,960-404.2v-70.1C1905.4,333.8,1890.4,349.6,1875,365z"/>
</svg>
